<?xml version="1.0"?>
<svg fill="#ffffff" width="512" height="512" xmlns="http://www.w3.org/2000/svg" xmlns:svg="http://www.w3.org/2000/svg" enable-background="new 0 0 512 512" version="1.1" xml:space="preserve">
 <g class="layer">
  <title>Layer 1</title>
  <g id="svg_1" transform="matrix(1 0 0 1 0 0)">
   <g id="svg_2">
    <path fill="#ffffff" d="m270.24,142.38c-16.67,-16.73 -43.38,-17.9 -61.46,-2.7l-102.76,87.14c-5.48,4.65 -6.15,12.85 -1.5,18.32c4.64,5.48 12.84,6.15 18.32,1.51l102.72,-87.14c7.69,-6.47 19.06,-5.97 26.15,1.15c7.48,7.56 7.41,19.75 -0.15,27.22c-0.15,0.15 -0.3,0.3 -0.46,0.44l-65.19,60.36c-4.16,3.87 -5.33,9.99 -2.89,15.12c9.69,20.35 11.58,43.55 5.33,65.2c-1.99,6.9 1.99,14.11 8.9,16.11s14.11,-2 16.1,-8.9c7.1,-24.56 6.05,-50.75 -3,-74.66l58.48,-54.15c9.02,-8.31 14.25,-19.95 14.47,-32.21c0.31,-12.26 -4.41,-24.12 -13.06,-32.81z" id="svg_3"/>
   </g>
  </g>
  <g id="svg_4" transform="matrix(1 0 0 1 0 0)">
   <g id="svg_5">
    <path d="m360.02,261.59l-104,0c-7.18,0 -13,5.82 -13,13s5.82,13 13,13l104,0c7.18,0 13,-5.82 13,-13s-5.82,-13 -13,-13z" id="svg_6"/>
   </g>
  </g>
  <g id="svg_10">
   <g id="svg_11">
    <path fill="#ffffff" d="m450.54,0l-299,0c-17.89,0.02 -32.39,14.52 -32.41,32.41l0,64.45l-39.29,39.25c-20.11,20 -31.38,47.21 -31.3,75.57l0,194.63l-10,0c-7.18,0 -13,5.82 -13,13l0,79.69c0,7.18 5.82,13 13,13c0.01,0 0.03,0 0.04,0c7.18,0 13,-5.82 13,-13l0,-66.69l223.77,0l0,66.69c0,7.18 5.82,13 13,13s13,-5.82 13,-13l0,-79.69c0,-7.18 -5.82,-13 -13,-13l-20.13,0l0,-13.81c24.15,-17.51 39.98,-44.24 43.74,-73.83c0.91,-7.12 -4.12,-13.64 -11.24,-14.55c-7.12,-0.91 -13.64,4.12 -14.55,11.24c-3.1,24.43 -17,46.17 -37.87,59.24c-3.78,2.38 -6.08,6.53 -6.08,11l0,20.7l-167.68,0l0,-194.62c-0.06,-21.46 8.47,-42.05 23.69,-57.18l20.87,-20.87l0,27.69c0,7.18 5.82,13 13,13s13,-5.82 13,-13l0,-67.54l311.85,0l0,51.22c0,7.18 5.82,13 13,13s13,-5.82 13,-13l0,-112.59c-0.02,-17.89 -14.52,-32.39 -32.41,-32.41zm6.38,67.78l-311.82,0l0,-35.37c0,-3.54 2.87,-6.4 6.41,-6.41l299,0c3.54,0 6.4,2.87 6.41,6.41l0,35.37z" id="svg_12"/>
   </g>
  </g>
  <g id="svg_13" transform="matrix(1 0 0 1 0 0)">
   <g id="svg_14">
    <path fill="#ffffff" d="m234.85,454.65l-7.7,0c-7.18,0 -13,5.82 -13,13s5.82,13 13,13l7.7,0c7.18,0 13,-5.82 13,-13c0,-7.18 -5.82,-13 -13,-13z" id="svg_15"/>
   </g>
  </g>
  <line fill="none" id="svg_19" stroke="#ffffff" stroke-width="26" x1="470.12" x2="469.01" y1="145.54" y2="276.27"/>
  <line fill="none" id="svg_20" stroke="#ffffff" stroke-linecap="round" stroke-linejoin="round" stroke-width="26" transform="rotate(90 404.195 274.978)" x1="404.75" x2="403.64" y1="210" y2="339.96"/>
 </g>

</svg>