<?xml version="1.0"?>
<svg width="164" height="256" xmlns="http://www.w3.org/2000/svg" xmlns:svg="http://www.w3.org/2000/svg" enable-background="new 0 0 164 256" version="1.1" xml:space="preserve">
 <g class="layer">
  <title>Layer 1</title>
  <g id="SVGRepo_bgCarrier" stroke-width="0"/>
  <g id="SVGRepo_tracerCarrier" stroke-linecap="round" stroke-linejoin="round"/>
  <g id="SVGRepo_iconCarrier">
   <path d="m161.78,37.14c0,-19.41 -15.73,-35.14 -35.14,-35.14c-19.41,0 -35.14,15.73 -35.14,35.14c0,4.87 1.01,10.73 2.78,14.95c6.73,16.06 24.31,58.22 30.31,72.61c-14.1,-12.36 -32.92,-19.34 -53.16,-18c-40.7,2.36 -71.64,37.41 -69.05,78.12c2.47,40.58 37.52,71.41 78.23,69.05c40.7,-2.47 71.64,-37.52 68.93,-78.23c-1.15,-19.01 -9.39,-35.89 -22,-48.21c4.47,-10.69 24.22,-58.03 31.46,-75.27c1.77,-4.23 2.78,-10.15 2.78,-15.02zm-89.41,208.03c-14.35,-0.94 -28.12,-6.59 -39.17,-16.24c-13.06,-11.52 -20.71,-27.52 -21.88,-44.7c-1.18,-15.53 2.58,-30.11 11.99,-42.35c0.36,3.18 2.12,5.65 2.12,7.88c0,8.83 -0.7,14.12 4.94,21.06c2.24,2.59 3.06,6.82 4,10.12c1.18,3.17 4.94,4.7 7.77,6.58c5.41,3.53 10.7,8.12 16.58,11.3c3.77,2.12 6,3.17 5.42,7.76c-0.71,3.53 -0.71,5.88 -2.47,9.18c-0.36,1.17 2.58,7.17 3.52,7.88c3.06,2.47 5.89,4.94 9.06,7.18c4.94,3.52 0,8.82 -1.88,14.35zm60.59,-52.82c0,0 3.76,1.17 6.82,0.35c-2.24,11.53 -7.3,22 -15.29,31.06c-8.83,10 -20,16.94 -32.59,20c1.53,-4.47 4.47,-8.83 7.29,-11.3c2.47,-2.23 5.41,-6.23 6.59,-9.17c1.18,-3.18 2.59,-5.88 4.47,-8.83c2.24,-4 -6.94,-9.64 -10,-10.58c-6.82,-2.47 -11.88,-5.89 -17.76,-9.65c-4.36,-2.59 -17.3,3.41 -22.24,1.53c-6.58,-2.47 -8.82,-4.47 -14.7,-8.24c-6,-4 -4.35,-12.47 -4.71,-18.7c4.47,0 10.71,-1.88 14,1.53c0.94,1.17 4.47,5.88 6.59,4c2.23,-2.35 -1.18,-8 -1.88,-9.3c-2.12,-4 3.76,-6.23 6.82,-9.17c3.77,-4 11.88,-10.59 10.94,-13.06c-0.94,-2.59 -9.17,-10 -13.76,-8.23c-0.94,0 -6.24,5.88 -7.3,6.82c0,-2.12 -0.35,-3.18 -0.35,-5.06c0,-1.29 -2.59,-2.47 -2.47,-3.41c0.24,-2.24 5.88,-6.59 7.18,-8.24c-1.18,-0.7 -4.94,-3.41 -5.88,-3.06c-2.47,1.3 -5.42,2.24 -8.12,3.42c0,-0.95 -0.24,-1.89 -0.35,-2.47c5.05,-2.59 10.58,-4.47 16.23,-5.89l5.06,1.89l3.76,4l3.77,3.52c0,0 2.23,0.95 3.17,0.95c1.18,-0.24 4.71,-4.95 4.71,-4.95l-1.53,-3.52l-0.23,-3.18c10.11,0.94 19.64,4 28.11,9.18c-1.29,0.23 -3.17,0.35 -4.94,0.94c-0.7,-0.36 -4.7,0.35 -4.47,2.11c0.24,1.3 7.18,6.95 10.12,11.89c3.06,5.06 11.53,8.23 13.06,14c1.53,6.58 -0.94,15.05 0.23,22.94c1.18,7.76 9.65,15.88 9.65,15.88zm-6.32,-138.98c-8.83,0 -15.98,-7.16 -15.98,-15.98c0,-8.82 7.15,-15.97 15.98,-15.97c8.82,0 15.97,7.15 15.97,15.97c0,8.82 -7.15,15.98 -15.97,15.98z" fill="#ffffff" id="svg_1"/>
  </g>
  <path d="m2.7,44.04l33.56,0l10.37,-31.88l10.37,31.88l33.56,0l-27.15,19.71l10.37,31.88l-27.15,-19.71l-27.15,19.71l10.37,-31.88l-27.15,-19.71z" fill="#ffffff" id="svg_4" stroke="#000000" stroke-width="0" transform="matrix(1 0 0 1 0 0)"/>
 </g>

</svg>